<mxfile host="app.diagrams.net" modified="2023-11-08T20:35:58.543Z" agent="Mozilla/5.0 (Windows NT 10.0; Win64; x64) AppleWebKit/537.36 (KHTML, like Gecko) Chrome/118.0.0.0 Safari/537.36" etag="EgjMSg2ipPrsi0RWMqQU" version="22.0.8" type="device">
  <diagram name="Page-1" id="4NdmZDGdV9eQTbaRouFe">
    <mxGraphModel dx="3244" dy="3424" grid="1" gridSize="10" guides="1" tooltips="1" connect="1" arrows="1" fold="1" page="1" pageScale="1" pageWidth="850" pageHeight="1100" math="0" shadow="0">
      <root>
        <mxCell id="0" />
        <mxCell id="1" parent="0" />
        <mxCell id="ePWSj0OLA_SV6YG4xHlB-46" value="" style="rounded=0;whiteSpace=wrap;html=1;fillColor=#B5B5B5;strokeColor=#666666;fontColor=#333333;" vertex="1" parent="1">
          <mxGeometry x="-810" y="-1520" width="790" height="240" as="geometry" />
        </mxCell>
        <mxCell id="ePWSj0OLA_SV6YG4xHlB-29" value="" style="rounded=0;whiteSpace=wrap;html=1;rotation=0;" vertex="1" parent="1">
          <mxGeometry x="-820" y="-1800" width="190" height="100" as="geometry" />
        </mxCell>
        <mxCell id="ePWSj0OLA_SV6YG4xHlB-1" value="" style="rounded=0;whiteSpace=wrap;html=1;" vertex="1" parent="1">
          <mxGeometry x="-840" y="-2190" width="830" height="70" as="geometry" />
        </mxCell>
        <mxCell id="ePWSj0OLA_SV6YG4xHlB-2" value="" style="whiteSpace=wrap;html=1;aspect=fixed;" vertex="1" parent="1">
          <mxGeometry x="-90" y="-2180" width="50" height="50" as="geometry" />
        </mxCell>
        <mxCell id="ePWSj0OLA_SV6YG4xHlB-3" value="" style="shape=umlDestroy;whiteSpace=wrap;html=1;strokeWidth=3;targetShapes=umlLifeline;" vertex="1" parent="1">
          <mxGeometry x="-90" y="-2180" width="50" height="50" as="geometry" />
        </mxCell>
        <mxCell id="ePWSj0OLA_SV6YG4xHlB-4" value="&lt;font style=&quot;font-size: 19px;&quot;&gt;Home&lt;/font&gt;" style="html=1;whiteSpace=wrap;" vertex="1" parent="1">
          <mxGeometry x="-800" y="-2175" width="140" height="40" as="geometry" />
        </mxCell>
        <mxCell id="ePWSj0OLA_SV6YG4xHlB-5" value="&lt;font style=&quot;font-size: 19px;&quot;&gt;Meal Ideas&lt;/font&gt;" style="html=1;whiteSpace=wrap;" vertex="1" parent="1">
          <mxGeometry x="-640" y="-2175" width="160" height="40" as="geometry" />
        </mxCell>
        <mxCell id="ePWSj0OLA_SV6YG4xHlB-6" value="&lt;font style=&quot;font-size: 19px;&quot;&gt;Need To Know&lt;/font&gt;" style="html=1;whiteSpace=wrap;" vertex="1" parent="1">
          <mxGeometry x="-450" y="-2175" width="160" height="40" as="geometry" />
        </mxCell>
        <mxCell id="ePWSj0OLA_SV6YG4xHlB-7" value="&lt;h1 style=&quot;font-size: 23px;&quot;&gt;Heading&lt;/h1&gt;&lt;p style=&quot;font-size: 23px;&quot;&gt;Lorem ipsum dolor sit amet, consectetur adipisicing elit, sed do eiusmod tempor incididunt ut labore et dolore magna aliqua.&lt;/p&gt;" style="text;html=1;strokeColor=none;fillColor=none;spacing=5;spacingTop=-20;whiteSpace=wrap;overflow=hidden;rounded=0;align=center;fontSize=23;" vertex="1" parent="1">
          <mxGeometry x="-620" y="-2070" width="610" height="160" as="geometry" />
        </mxCell>
        <mxCell id="ePWSj0OLA_SV6YG4xHlB-11" value="" style="shape=umlDestroy;whiteSpace=wrap;html=1;strokeWidth=3;targetShapes=umlLifeline;" vertex="1" parent="1">
          <mxGeometry x="-820" y="-1800" width="190" height="100" as="geometry" />
        </mxCell>
        <mxCell id="ePWSj0OLA_SV6YG4xHlB-12" value="&lt;h1 style=&quot;font-size: 27px;&quot;&gt;&lt;span style=&quot;font-weight: normal; background-color: initial;&quot;&gt;Lorem ipsum dolor sit amet, consectetur adipisicing elit, sed do eiusmod tempor incididunt ut labore et dolore magna aliqua.&lt;/span&gt;&lt;br&gt;&lt;/h1&gt;" style="text;html=1;strokeColor=none;fillColor=none;spacing=5;spacingTop=-20;whiteSpace=wrap;overflow=hidden;rounded=0;fontSize=27;align=center;" vertex="1" parent="1">
          <mxGeometry x="-520" y="-1790" width="480" height="160" as="geometry" />
        </mxCell>
        <mxCell id="ePWSj0OLA_SV6YG4xHlB-16" value="Lorem ipsum dolor sit amet, consectetur adipisicing elit, sed do eiusmod tempor incididunt ut labore et dolore magna aliqua.&#xa;" style="text;spacing=5;spacingTop=-20;whiteSpace=wrap;overflow=hidden;rounded=0;fontSize=30;align=center;labelBackgroundColor=#706868;strokeColor=none;fontColor=#F2F2F2;" vertex="1" parent="1">
          <mxGeometry x="-530" y="-1460" width="440" height="140" as="geometry" />
        </mxCell>
        <mxCell id="ePWSj0OLA_SV6YG4xHlB-17" value="" style="rounded=0;whiteSpace=wrap;html=1;" vertex="1" parent="1">
          <mxGeometry x="-835" y="-1250" width="820" height="70" as="geometry" />
        </mxCell>
        <mxCell id="ePWSj0OLA_SV6YG4xHlB-18" value="" style="whiteSpace=wrap;html=1;aspect=fixed;" vertex="1" parent="1">
          <mxGeometry x="-90" y="-1240" width="50" height="50" as="geometry" />
        </mxCell>
        <mxCell id="ePWSj0OLA_SV6YG4xHlB-19" value="" style="whiteSpace=wrap;html=1;aspect=fixed;" vertex="1" parent="1">
          <mxGeometry x="-150" y="-1240" width="50" height="50" as="geometry" />
        </mxCell>
        <mxCell id="ePWSj0OLA_SV6YG4xHlB-20" value="" style="whiteSpace=wrap;html=1;aspect=fixed;" vertex="1" parent="1">
          <mxGeometry x="-210" y="-1240" width="50" height="50" as="geometry" />
        </mxCell>
        <mxCell id="ePWSj0OLA_SV6YG4xHlB-21" value="" style="shape=umlDestroy;whiteSpace=wrap;html=1;strokeWidth=3;targetShapes=umlLifeline;" vertex="1" parent="1">
          <mxGeometry x="-210" y="-1240" width="50" height="50" as="geometry" />
        </mxCell>
        <mxCell id="ePWSj0OLA_SV6YG4xHlB-22" value="" style="shape=umlDestroy;whiteSpace=wrap;html=1;strokeWidth=3;targetShapes=umlLifeline;" vertex="1" parent="1">
          <mxGeometry x="-150" y="-1240" width="50" height="50" as="geometry" />
        </mxCell>
        <mxCell id="ePWSj0OLA_SV6YG4xHlB-23" value="" style="shape=umlDestroy;whiteSpace=wrap;html=1;strokeWidth=3;targetShapes=umlLifeline;" vertex="1" parent="1">
          <mxGeometry x="-90" y="-1240" width="50" height="50" as="geometry" />
        </mxCell>
        <mxCell id="ePWSj0OLA_SV6YG4xHlB-24" value="&lt;font style=&quot;font-size: 16px;&quot;&gt;Text @ 2023&lt;/font&gt;" style="html=1;whiteSpace=wrap;" vertex="1" parent="1">
          <mxGeometry x="-800" y="-1235" width="150" height="40" as="geometry" />
        </mxCell>
        <mxCell id="ePWSj0OLA_SV6YG4xHlB-25" value="&lt;font style=&quot;font-size: 16px;&quot;&gt;Site Plan&lt;/font&gt;" style="html=1;whiteSpace=wrap;" vertex="1" parent="1">
          <mxGeometry x="-600" y="-1235" width="150" height="40" as="geometry" />
        </mxCell>
        <mxCell id="ePWSj0OLA_SV6YG4xHlB-26" value="&lt;font style=&quot;font-size: 19px;&quot;&gt;Contact Us&lt;/font&gt;" style="html=1;whiteSpace=wrap;" vertex="1" parent="1">
          <mxGeometry x="-265" y="-2175" width="160" height="40" as="geometry" />
        </mxCell>
        <mxCell id="ePWSj0OLA_SV6YG4xHlB-27" value="&lt;font style=&quot;font-size: 16px;&quot;&gt;Contact Us&lt;/font&gt;" style="html=1;whiteSpace=wrap;" vertex="1" parent="1">
          <mxGeometry x="-400" y="-1235" width="150" height="40" as="geometry" />
        </mxCell>
        <mxCell id="ePWSj0OLA_SV6YG4xHlB-31" value="" style="group" vertex="1" connectable="0" parent="1">
          <mxGeometry x="-750" y="-1470" width="210" height="200" as="geometry" />
        </mxCell>
        <mxCell id="ePWSj0OLA_SV6YG4xHlB-30" value="" style="whiteSpace=wrap;html=1;aspect=fixed;container=1;movable=1;resizable=1;rotatable=1;deletable=1;editable=1;locked=0;connectable=1;" vertex="1" parent="ePWSj0OLA_SV6YG4xHlB-31">
          <mxGeometry width="159.06432748538012" height="159.06432748538012" as="geometry" />
        </mxCell>
        <mxCell id="ePWSj0OLA_SV6YG4xHlB-15" value="" style="shape=umlDestroy;whiteSpace=wrap;html=1;strokeWidth=3;targetShapes=umlLifeline;" vertex="1" parent="ePWSj0OLA_SV6YG4xHlB-30">
          <mxGeometry width="159.06432748538012" height="159.06432748538012" as="geometry" />
        </mxCell>
        <mxCell id="ePWSj0OLA_SV6YG4xHlB-38" value="" style="whiteSpace=wrap;html=1;aspect=fixed;" vertex="1" parent="1">
          <mxGeometry x="-820" y="-2072.5" width="80" height="80" as="geometry" />
        </mxCell>
        <mxCell id="ePWSj0OLA_SV6YG4xHlB-39" value="" style="shape=umlDestroy;whiteSpace=wrap;html=1;strokeWidth=3;targetShapes=umlLifeline;" vertex="1" parent="1">
          <mxGeometry x="-820" y="-2070" width="80" height="75" as="geometry" />
        </mxCell>
        <mxCell id="ePWSj0OLA_SV6YG4xHlB-40" value="" style="whiteSpace=wrap;html=1;aspect=fixed;" vertex="1" parent="1">
          <mxGeometry x="-765" y="-1970" width="80" height="80" as="geometry" />
        </mxCell>
        <mxCell id="ePWSj0OLA_SV6YG4xHlB-41" value="" style="whiteSpace=wrap;html=1;aspect=fixed;" vertex="1" parent="1">
          <mxGeometry x="-710" y="-2070" width="80" height="80" as="geometry" />
        </mxCell>
        <mxCell id="ePWSj0OLA_SV6YG4xHlB-42" value="" style="shape=umlDestroy;whiteSpace=wrap;html=1;strokeWidth=3;targetShapes=umlLifeline;" vertex="1" parent="1">
          <mxGeometry x="-710" y="-2070" width="80" height="75" as="geometry" />
        </mxCell>
        <mxCell id="ePWSj0OLA_SV6YG4xHlB-43" value="" style="shape=umlDestroy;whiteSpace=wrap;html=1;strokeWidth=3;targetShapes=umlLifeline;" vertex="1" parent="1">
          <mxGeometry x="-765" y="-1967.5" width="80" height="75" as="geometry" />
        </mxCell>
        <mxCell id="ePWSj0OLA_SV6YG4xHlB-44" value="" style="rounded=0;whiteSpace=wrap;html=1;" vertex="1" parent="1">
          <mxGeometry x="-690" y="-1720" width="110" height="130" as="geometry" />
        </mxCell>
        <mxCell id="ePWSj0OLA_SV6YG4xHlB-45" value="" style="shape=umlDestroy;whiteSpace=wrap;html=1;strokeWidth=3;targetShapes=umlLifeline;" vertex="1" parent="1">
          <mxGeometry x="-690" y="-1720" width="110" height="130" as="geometry" />
        </mxCell>
      </root>
    </mxGraphModel>
  </diagram>
</mxfile>
